<svg width="168" height="170" viewBox="0 0 168 170" fill="none" xmlns="http://www.w3.org/2000/svg">
<path d="M168 117L145.713 110.947L151.615 133.274L168 117ZM150.599 121.599L150.017 119.686C144.037 121.504 138.06 123.499 132.242 125.422C126.412 127.349 120.743 129.204 115.329 130.765C104.431 133.905 94.8652 135.756 87.3701 134.731C83.6697 134.225 80.5547 133.027 78.0355 130.998C75.5215 128.974 73.4706 126.017 72.0636 121.777C69.2177 113.202 69.0835 99.611 72.9659 78.8679L71 78.5L69.0342 78.132C65.1223 99.0326 65.0893 113.461 68.2672 123.037C69.8722 127.874 72.3139 131.526 75.5266 134.114C78.7342 136.697 82.58 138.113 86.8281 138.694C95.2297 139.843 105.511 137.757 116.437 134.608C121.935 133.023 127.672 131.145 133.497 129.22C139.334 127.291 145.258 125.314 151.181 123.513L150.599 121.599Z" fill="#0396FF"/>
<path d="M27.0852 73.5442C26.514 73.8775 25.886 73.9229 25.201 73.6804C24.5238 73.4087 23.673 72.8183 22.6486 71.9094C22.1418 71.4641 21.6734 71.0212 21.2434 70.5805C20.821 70.1107 20.4371 69.6431 20.0915 69.1779C20.067 69.6862 19.991 70.0639 19.8636 70.3112C19.7438 70.5293 19.4997 70.7458 19.1312 70.9608C18.2283 71.4877 17.2648 72.0376 16.2406 72.6105C15.2057 73.165 14.2867 73.6642 13.4837 74.108C13.6403 74.4612 13.8024 74.8236 13.9698 75.1952C14.1449 75.5376 14.3292 75.8747 14.5228 76.2063C14.6948 76.5011 14.876 76.7906 15.0665 77.0746C15.2754 77.3479 15.4697 77.6174 15.6494 77.8831C16.0057 78.3667 16.0449 78.8996 15.767 79.4816C15.4892 80.0636 15.0094 80.5536 14.3276 80.9514C13.738 81.2954 13.2926 81.2095 12.9916 80.6936C12.8088 80.3803 12.6176 79.8621 12.4178 79.1388C12.2627 78.6613 12.1267 78.259 12.01 77.9319C11.8825 77.5864 11.765 77.3215 11.6574 77.1373C11.3564 76.6213 10.9955 76.3626 10.5747 76.3612C10.2308 76.3643 9.98889 76.2461 9.84912 76.0065C9.7201 75.7854 9.61026 75.4914 9.51961 75.1244C9.44739 74.7466 9.41893 74.3804 9.43424 74.0257C9.4388 73.6525 9.48253 73.3676 9.56543 73.1711C9.6514 73.0221 9.77039 72.8662 9.92239 72.7034C10.0744 72.5406 10.2832 72.3694 10.5489 72.1897C10.0633 69.7067 9.82726 67.4609 9.84082 65.4523C9.86205 63.4146 10.1428 61.6946 10.6832 60.2926C11.2128 58.8721 12.0027 57.8554 13.053 57.2425C13.6979 56.8662 14.2968 56.8132 14.8496 57.0834C15.3917 57.3351 15.9585 57.9677 16.5498 58.9811L17.2755 60.2249C18.3615 62.0859 19.4996 63.7189 20.6898 65.1238C21.8801 66.5287 22.9629 67.6012 23.9381 68.3412C24.9455 69.1365 26.0021 69.6562 27.1078 69.9002C27.4364 69.9555 27.6806 70.0353 27.8403 70.1397C27.9893 70.2257 28.1067 70.3423 28.1928 70.4898C28.354 70.7661 28.4047 71.107 28.3449 71.5124C28.3035 71.9071 28.1707 72.2933 27.9466 72.6711C27.7224 73.0489 27.4353 73.3399 27.0852 73.5442ZM12.6356 70.7498C13.5169 70.1861 14.2931 69.6961 14.9641 69.2799C15.6244 68.8452 16.1848 68.4935 16.6455 68.2247L18.5802 67.0958C18.2423 66.6014 17.8882 66.0793 17.5181 65.5296C17.1664 64.9692 16.8077 64.3757 16.4422 63.7492L15.5068 62.1462C15.195 61.6118 14.9262 61.2994 14.7005 61.2088C14.4824 61.089 14.2075 61.1259 13.8759 61.3195C12.973 61.8463 12.4142 62.9628 12.1994 64.6688C11.9846 66.3749 12.13 68.4019 12.6356 70.7498ZM34.1552 69.4929C33.4735 69.8907 32.7786 70.1603 32.0707 70.3017C31.3628 70.443 30.7171 70.437 30.1336 70.2835C29.55 70.13 29.1077 69.7953 28.8067 69.2794C28.6454 69.003 28.5594 68.7074 28.5486 68.3926C28.5455 68.0486 28.7005 67.7853 29.0138 67.6025C29.1796 67.5057 29.3815 67.4496 29.6195 67.4343C30.0587 67.425 30.5846 67.3527 31.1973 67.2175C31.7993 67.0639 32.3858 66.8204 32.957 66.4871C33.602 66.1108 34.1194 65.6854 34.5094 65.2108C34.8994 64.7363 34.9976 64.3332 34.8041 64.0015C34.6535 63.7435 34.3525 63.6722 33.9011 63.7874C33.4681 63.8919 32.7717 64.1377 31.812 64.5248C31.1394 64.769 30.4745 64.9841 29.8173 65.17C29.1601 65.3559 28.5451 65.3813 27.9723 65.2462C27.3888 65.0927 26.8927 64.6659 26.4841 63.9657C26.0863 63.284 25.8889 62.5223 25.8919 61.6808C25.9025 60.8101 26.1619 59.9425 26.6701 59.0779C27.1782 58.2133 27.9759 57.4638 29.063 56.8294C29.6342 56.4961 30.2246 56.2381 30.8342 56.0552C31.4438 55.8724 31.999 55.8079 32.4996 55.8615C33.0002 55.9152 33.3634 56.1355 33.5892 56.5225C33.7827 56.8541 33.8403 57.2281 33.7621 57.6442C33.7022 58.0496 33.5695 58.4358 33.3637 58.8029C33.1657 59.1407 32.9653 59.3688 32.7626 59.4871C32.6152 59.5731 32.3811 59.5739 32.0601 59.4895C31.5963 59.4143 31.1441 59.4435 30.7034 59.5772C30.2704 59.6817 29.8696 59.8414 29.5011 60.0564C28.9483 60.379 28.5453 60.7253 28.2919 61.0954C28.057 61.4548 28.0148 61.7635 28.1654 62.0214C28.3051 62.261 28.5562 62.3738 28.9186 62.3599C29.2995 62.3353 29.7233 62.2362 30.1901 62.0626C30.6461 61.8706 31.0837 61.6894 31.5029 61.5188C32.6577 61.0427 33.6558 60.806 34.4973 60.809C35.328 60.7935 36.0068 61.2372 36.5337 62.1401C36.9422 62.8403 37.1481 63.6587 37.1513 64.5955C37.1622 65.503 36.9189 66.3983 36.4215 67.2813C35.9425 68.1536 35.1871 68.8908 34.1552 69.4929ZM42.5372 64.5278C42.3346 64.6461 42.1035 64.6945 41.8439 64.673C41.5952 64.67 41.4301 64.5564 41.3487 64.3322C40.7649 62.6968 40.1244 61.0699 39.427 59.4515C38.7373 57.8039 37.9408 56.2062 37.0377 54.6584C36.2421 53.2949 35.4757 52.0873 34.7384 51.0355C34.0012 49.9837 33.0882 49.0962 31.9993 48.3731C31.7889 48.2242 31.6131 48.0921 31.4718 47.977C31.3305 47.8618 31.2222 47.7397 31.147 47.6108C30.9427 47.2607 30.9465 46.8015 31.1583 46.2333C31.3701 45.6651 31.7064 45.2466 32.167 44.9778C32.8304 44.5908 33.5183 44.7327 34.2309 45.4037C34.9435 46.0747 35.7622 47.2024 36.6868 48.7871C37.7942 50.6849 38.6513 52.4078 39.2581 53.9556C39.8541 55.485 40.2842 56.6666 40.5485 57.5004L40.6913 57.4911C40.533 56.3732 40.4975 55.2331 40.5849 54.0706C40.6615 52.8897 40.9071 51.8078 41.3215 50.825C41.7545 49.8314 42.4131 49.0765 43.2976 48.5605C44.1636 48.0551 44.9774 47.926 45.7391 48.1732C46.5193 48.4096 47.119 48.887 47.5383 49.6057C48.0329 50.4532 48.1697 51.3861 47.9487 52.4042C47.7277 53.4224 47.2579 54.4375 46.5394 55.4495C47.1445 55.9363 47.7756 56.2348 48.4329 56.3453C49.0794 56.4374 49.7435 56.2845 50.4253 55.8867C50.6464 55.7577 50.8199 55.6317 50.9458 55.5089C51.1531 55.3138 51.4073 55.4742 51.7083 55.9902C51.8803 56.285 52.0186 56.6489 52.1231 57.0819C52.2275 57.515 52.1946 57.9664 52.0242 58.4363C51.8615 58.8771 51.4577 59.2856 50.8128 59.6619C49.9467 60.1672 49.0922 60.3324 48.2491 60.1575C47.4137 59.9534 46.6244 59.5742 45.8811 59.0199C45.1454 58.4365 44.4797 57.8246 43.8838 57.1844C43.3386 56.5886 43.3592 56.0949 43.9458 55.7033C44.5477 55.2532 44.9783 54.7426 45.2378 54.1713C45.4972 53.6 45.4764 53.0564 45.1754 52.5405C44.8313 51.9509 44.3737 51.8227 43.8025 52.156C43.434 52.3711 43.1369 52.7297 42.9112 53.2318C42.6932 53.7048 42.5259 54.2224 42.4093 54.7844C42.3111 55.3357 42.2628 55.8455 42.2644 56.3139C42.2675 56.9542 42.3022 57.5639 42.3683 58.1428C42.4344 58.7217 42.5373 59.2791 42.6771 59.815L43.3222 60.9206C43.72 61.6023 43.8453 62.2826 43.698 62.9613C43.5691 63.6293 43.1822 64.1515 42.5372 64.5278ZM63.8891 52.0688C63.6311 52.2193 63.3724 52.2839 63.1129 52.2624C62.8641 52.2594 62.699 52.1457 62.6176 51.9216C62.0338 50.2862 61.3933 48.6593 60.6959 47.0409C60.0062 45.3933 59.2098 43.7956 58.3066 42.2478C57.511 40.8843 56.7446 39.6766 56.0073 38.6248C55.2701 37.573 54.3571 36.6856 53.2682 35.9625C53.0578 35.8135 52.882 35.6815 52.7407 35.5663C52.5994 35.4512 52.4911 35.3291 52.4159 35.2001C52.2116 34.85 52.2154 34.3909 52.4272 33.8227C52.6575 33.2437 53.0029 32.8199 53.4636 32.5511C54.1085 32.1748 54.7872 32.3221 55.4999 32.9931C56.2125 33.664 57.0311 34.7918 57.9557 36.3764C59.0632 38.2743 59.9203 39.9972 60.527 41.545C61.123 43.0744 61.5532 44.2559 61.8174 45.0897L61.9602 45.0805C61.7589 43.8889 61.6689 42.7188 61.6903 41.5701C61.73 40.4108 61.9495 39.3688 62.3486 38.4443C62.7478 37.5198 63.408 36.7888 64.3293 36.2512C65.3058 35.6814 66.2149 35.5461 67.0564 35.8455C67.9164 36.134 68.5991 36.7113 69.1044 37.5774C69.3194 37.9459 69.4922 38.3267 69.6228 38.7198C69.7426 39.0945 69.8479 39.4653 69.9385 39.8323C70.0184 40.1809 70.1129 40.5333 70.222 40.8895C70.3203 41.2273 70.4609 41.5529 70.6436 41.8661C70.9769 42.4373 71.3893 42.8265 71.8807 43.0338C72.3614 43.2226 72.8751 43.2563 73.4217 43.1349C73.5722 43.0965 73.6966 43.098 73.7949 43.1395C73.9008 43.1518 74.0022 43.2408 74.099 43.4066C74.1957 43.5725 74.2802 43.8443 74.3524 44.222C74.4247 44.5998 74.394 45.0128 74.2605 45.4613C74.1162 45.8912 73.7584 46.2729 73.1872 46.6062C72.4502 47.0363 71.7285 47.1116 71.0221 46.8322C70.3049 46.5344 69.7044 45.9709 69.2206 45.1417C68.984 44.7364 68.779 44.3003 68.6054 43.8335C68.4502 43.3559 68.315 42.8914 68.1998 42.44C68.0661 41.9993 67.9394 41.5916 67.8196 41.2169C67.689 40.8238 67.5538 40.5075 67.4141 40.268C66.9195 39.4204 66.23 39.2546 65.3455 39.7707C64.6085 40.2008 64.1103 40.8496 63.8509 41.7173C63.5991 42.5558 63.5071 43.4986 63.5748 44.5459C63.6502 45.564 63.8062 46.5721 64.0428 47.5702L64.5912 48.5099C64.989 49.1917 65.1142 49.872 64.9669 50.5507C64.838 51.2187 64.4787 51.7248 63.8891 52.0688ZM81.4057 41.9218C80.0053 42.7389 78.6778 42.9825 77.4232 42.6525C76.1762 42.2933 75.1334 41.3951 74.2948 39.9579C73.5314 38.6497 73.1236 37.2946 73.0712 35.8926C73.0188 34.4906 73.2889 33.1968 73.8814 32.0112C74.4817 30.7965 75.3623 29.8504 76.5231 29.1731C77.6286 28.528 78.6744 28.2883 79.6602 28.454C80.6354 28.6013 81.3863 29.1263 81.9132 30.0292C82.3325 30.7478 82.4984 31.5402 82.411 32.4063C82.3236 33.2724 82.0189 34.1047 81.4969 34.9033C80.9641 35.6834 80.2463 36.3369 79.3435 36.8638C78.2379 37.5089 77.1899 37.787 76.1994 37.698C76.7124 38.5349 77.3958 39.05 78.2497 39.2433C79.1219 39.426 80.0003 39.2592 80.8847 38.7432C81.4191 38.4314 81.9089 38.0221 82.3541 37.5152C82.807 36.9793 83.1394 36.4272 83.3513 35.859C83.4802 35.4873 83.6552 35.237 83.8764 35.108C84.0606 35.0005 84.2456 34.9789 84.4315 35.0434C84.625 35.0787 84.7755 35.1885 84.883 35.3727C85.1195 35.7781 85.0812 36.5167 84.7681 37.5886C84.2217 39.4883 83.1009 40.9326 81.4057 41.9218ZM78.0303 35.1848C78.6936 34.7977 79.1658 34.337 79.4467 33.8025C79.7277 33.2681 79.7445 32.789 79.4972 32.3652C79.2929 32.0151 78.9896 31.8339 78.5873 31.8217C78.1742 31.791 77.7097 31.9262 77.1938 32.2273C76.512 32.6251 76.0207 33.1588 75.7198 33.8284C75.4266 34.4687 75.3576 35.1759 75.5128 35.9498C75.8675 35.9651 76.2744 35.9006 76.7336 35.7562C77.1927 35.6118 77.6249 35.4213 78.0303 35.1848ZM90.7035 36.4223C90.4087 36.5944 90.1369 36.6789 89.8881 36.6758C89.6685 36.6805 89.5165 36.5469 89.432 36.2751C89.1723 35.3645 88.8705 34.4662 88.5264 33.5802C88.19 32.665 87.8013 31.8297 87.3605 31.0743C86.7907 30.0977 86.3123 29.4259 85.9252 29.059C85.5459 28.6628 85.2065 28.441 84.907 28.3934C84.5968 28.3274 84.2674 28.3344 83.9189 28.4143C83.7576 28.4343 83.5949 28.4304 83.4306 28.4028C83.2847 28.3645 83.1633 28.2624 83.0666 28.0965C82.916 27.8386 82.8507 27.4938 82.8706 27.0623C82.8906 26.6308 83.0203 26.197 83.2598 25.7608C83.4885 25.3063 83.8424 24.9392 84.3215 24.6597C84.948 24.2941 85.51 24.2626 86.0076 24.565C86.5128 24.8383 86.9697 25.325 87.3783 26.0252C87.2799 25.0946 87.3466 24.2777 87.5784 23.5743C87.8178 22.8418 88.3061 22.2605 89.0431 21.8305C89.5406 21.5402 90.0197 21.4088 90.4804 21.4364C90.9411 21.464 91.3165 21.7265 91.6068 22.224C91.8971 22.7215 92.0055 23.2881 91.9318 23.9239C91.8659 24.5305 91.6671 24.9305 91.3354 25.124C91.2801 25.1563 91.2103 25.1847 91.1258 25.2093C91.0414 25.2339 90.95 25.2254 90.8517 25.184C90.4402 25.0289 90.0593 25.0536 89.7092 25.2578C89.1749 25.5696 88.9093 26.1939 88.9125 27.1306C88.9157 28.0673 89.259 29.1637 89.9426 30.4198C90.2298 30.8697 90.5132 31.3341 90.7927 31.8132C91.0907 32.2815 91.3042 32.6262 91.4332 32.8474C91.831 33.5291 91.9655 34.204 91.8365 34.872C91.7261 35.5293 91.3484 36.046 90.7035 36.4223ZM102.243 29.7632C100.842 30.5803 99.5149 30.8239 98.2603 30.4939C97.0133 30.1347 95.9705 29.2365 95.1319 27.7993C94.3685 26.4911 93.9606 25.1359 93.9082 23.7339C93.8558 22.3319 94.1259 21.0381 94.7185 19.8526C95.3188 18.6378 96.1993 17.6918 97.3601 17.0144C98.4657 16.3693 99.5114 16.1296 100.497 16.2953C101.472 16.4426 102.223 16.9677 102.75 17.8706C103.17 18.5892 103.336 19.3815 103.248 20.2476C103.161 21.1137 102.856 21.9461 102.334 22.7447C101.801 23.5248 101.083 24.1783 100.181 24.7051C99.075 25.3502 98.027 25.6283 97.0365 25.5394C97.5495 26.3762 98.2329 26.8913 99.0867 27.0847C99.959 27.2673 100.837 27.1006 101.722 26.5845C102.256 26.2727 102.746 25.8634 103.191 25.3566C103.644 24.8206 103.977 24.2685 104.188 23.7003C104.317 23.3287 104.492 23.0784 104.713 22.9493C104.898 22.8418 105.083 22.8203 105.269 22.8848C105.462 22.9201 105.613 23.0298 105.72 23.2141C105.957 23.6195 105.918 24.3581 105.605 25.43C105.059 27.3296 103.938 28.774 102.243 29.7632ZM98.8674 23.0261C99.5307 22.6391 100.003 22.1783 100.284 21.6439C100.565 21.1095 100.582 20.6304 100.334 20.2066C100.13 19.8565 99.8267 19.6753 99.4244 19.6631C99.0113 19.6324 98.5468 19.7676 98.0308 20.0687C97.3491 20.4665 96.8578 21.0002 96.5569 21.6697C96.2637 22.3101 96.1946 23.0173 96.3498 23.7912C96.7046 23.8065 97.1115 23.742 97.5706 23.5975C98.0298 23.4531 98.462 23.2627 98.8674 23.0261ZM109.474 18.6897C109.16 18.8725 108.922 18.9501 108.757 18.9225C108.582 18.8764 108.43 18.7428 108.301 18.5217C108.269 18.4665 108.226 18.3928 108.172 18.3006C108.108 18.1901 108.031 18.0373 107.942 17.8423C107.764 17.4523 107.528 16.9847 107.234 16.4396C106.941 15.8945 106.612 15.3087 106.246 14.6822C105.332 13.116 104.576 11.989 103.977 11.3011C103.378 10.6132 102.93 10.1211 102.634 9.8248C102.396 9.54382 102.25 9.35726 102.196 9.26513C102.024 8.97032 102.002 8.5511 102.129 8.00748C102.264 7.43468 102.672 6.94938 103.354 6.55156C103.999 6.17526 104.544 6.17825 104.99 6.56056C105.443 6.91369 105.976 7.61539 106.588 8.66567C107.051 9.45798 107.515 10.3601 107.982 11.372C108.449 12.3839 108.86 13.3421 109.215 14.2465C109.57 15.1509 109.821 15.8565 109.969 16.3632C110.201 17.1417 110.254 17.6784 110.13 17.9733C110.024 18.2574 109.805 18.4962 109.474 18.6897ZM112.128 23.8099C111.612 24.1109 111.091 24.1924 110.566 24.0542C110.059 23.9053 109.655 23.5729 109.354 23.057C109.043 22.5227 108.96 21.9783 109.105 21.4239C109.251 20.8696 109.601 20.4311 110.153 20.1085C110.669 19.8075 111.175 19.7222 111.671 19.8527C112.167 19.9831 112.566 20.3063 112.867 20.8222C113.189 21.375 113.283 21.9378 113.148 22.5106C113.002 23.065 112.662 23.4981 112.128 23.8099Z" fill="#0396FF"/>
</svg>
